<?xml version="1.0" encoding="utf-8"?>
<!-- Generator: Adobe Illustrator 23.0.1, SVG Export Plug-In . SVG Version: 6.00 Build 0)  -->
<svg version="1.1" id="Layer_1" xmlns="http://www.w3.org/2000/svg" xmlns:xlink="http://www.w3.org/1999/xlink" x="0px" y="0px"
	 viewBox="0 0 113.6 100.3" style="enable-background:new 0 0 113.6 100.3;" xml:space="preserve">
<style type="text/css">
	.st0{fill:#E1E1E1;}
</style>
<title>Asset 1</title>
<g>
	<g id="Layer_1-2">
		<path class="st0" d="M62.7,2.1v48.5c0,0-0.1,2.8,2.3,3.6c4.3,2.4,41,23.5,41,23.5c2.2,0.5,4.5-0.2,6.1-1.9c2.4-2.8,2.8-7.6-4-11.3
			S77.5,47.7,77.5,47.7s-2.6-1.1-2.8-4.9V5.7c0,0-0.8-5.7-6.4-5.7S62.7,2.1,62.7,2.1z"/>
		<path class="st0" d="M50.9,2.1v49.4c0,0,0.1,2.8-2.3,3.7c-4.3,2.4-41,23.9-41,23.9c-2.2,0.5-4.5-0.2-6.1-1.9
			c-2.4-2.8-2.8-7.7,4-11.5s30.6-17.2,30.6-17.2s2.6-1.1,2.8-5V5.8c0,0,0.8-5.8,6.4-5.8S50.9,2.1,50.9,2.1z"/>
		<path class="st0" d="M99.6,90.1L57.1,64.3L14.6,90.1c0,0-5.5,4.8,0,8.5c4.3,2.7,5.5,2.4,12.5-1.4s27.1-16.9,30-17
			c2.9,0.1,23,13.1,30,17s8.2,4.1,12.5,1.4C105.1,94.9,99.6,90.1,99.6,90.1z"/>
	</g>
</g>
</svg>
